<?xml version="1.0"?>
<svg viewBox="0 0 100 100" width="100%" height="100%" xmlns="http://www.w3.org/2000/svg" xmlns:svg="http://www.w3.org/2000/svg" enable-background="new 0 0 1400 980" preserveAspectRatio="xMidYMid meet" version="1.1">
 <defs>
  <style id="ee-google-fonts">@import url(https://fonts.googleapis.com/css?family=Bowlby+One+SC:400);</style>
 </defs>
 <g class="layer">
  <title>Layer 1</title>
  <rect fill="rgb(79, 79, 79)" height="100" id="ee-background" width="100" x="0" y="0"/>
  <ellipse cx="50" cy="50" fill="#ff0000" id="svg_1" rx="25" ry="25" transform="matrix(1 0 0 1 0 0)"/>
  <rect fill="#ff0000" height="70" id="svg_2" transform="matrix(1 0 0 1 0 0)" width="15" x="42.5" y="15"/>
  <rect fill="#ff0000" height="70" id="svg_3" transform="matrix(-0.00155369 0.999999 -0.999999 -0.00155369 100.078 0.0777447)" width="15" x="42.5" y="15"/>
  <rect fill="#ff0000" height="60" id="svg_4" transform="matrix(1 0 0 1 0 0) matrix(0.707107 0.707107 -0.707107 0.707107 50 -20.7107)" width="10" x="45" y="20"/>
  <rect fill="#ff0000" height="60" id="svg_5" transform="matrix(0.707107 -0.707107 0.707107 0.707107 -20.7107 50)" width="10" x="45" y="20"/>
  <rect fill="#4f4f4f" height="15" id="svg_8" transform="matrix(1 0 0 1 0 0)" width="15" x="42.55" y="42.5"/>
 </g>
</svg>